<?xml version="1.0" encoding="UTF-8" standalone="no"?>
<svg
   width="400px"
   height="400px"
   viewBox="0 0 400 400"
   version="1.1"
   id="svg1464"
   sodipodi:docname="saashq-favicon.svg"
   inkscape:version="1.2.2 (b0a8486541, 2022-12-01)"
   xmlns:inkscape="http://www.inkscape.org/namespaces/inkscape"
   xmlns:sodipodi="http://sodipodi.sourceforge.net/DTD/sodipodi-0.dtd"
   xmlns="http://www.w3.org/2000/svg"
   xmlns:svg="http://www.w3.org/2000/svg">
  <defs
     id="defs1468" />
  <sodipodi:namedview
     id="namedview1466"
     pagecolor="#ffffff"
     bordercolor="#000000"
     borderopacity="0.25"
     inkscape:showpageshadow="2"
     inkscape:pageopacity="0.0"
     inkscape:pagecheckerboard="0"
     inkscape:deskcolor="#d1d1d1"
     showgrid="false"
     inkscape:zoom="1.7475"
     inkscape:cx="200"
     inkscape:cy="194.27754"
     inkscape:window-width="1850"
     inkscape:window-height="902"
     inkscape:window-x="0"
     inkscape:window-y="0"
     inkscape:window-maximized="1"
     inkscape:current-layer="text3188" />
  <style
     id="style1457">
		polygon {
			fill: #171717;
		}
		@media (prefers-color-scheme: dark) {
			polygon {
				fill: #ffffff;
			}
		}
    </style>
  <circle
     style="fill:#5524b8;stroke-width:0.978335;fill-opacity:1"
     id="path1680"
     cx="199.55"
     cy="199.606"
     r="150" />
  <g
     aria-label="HQ"
     id="text3188"
     style="font-size:133.333px;font-family:SansSerifBldFLF;-inkscape-font-specification:SansSerifBldFLF;fill:#ffffff">
    <g
       id="g4075">
      <path
         d="m 131.6015,181.46869 v -37.33324 h -23.19995 v 95.19976 h 23.19995 v -37.33324 h 30.39992 v 37.33324 h 23.19994 v -95.19976 h -23.19994 v 37.33324 z"
         id="path4068" />
      <path
         d="m 287.06779,246.93519 -11.06663,-16.26663 c 11.59997,-9.06664 18.93328,-23.06661 18.93328,-38.66657 0,-27.06659 -21.86661,-48.93321 -48.93321,-48.93321 -27.06659,0 -48.93321,21.86662 -48.93321,48.93321 0,27.0666 21.86662,48.93321 48.93321,48.93321 4.26666,0 8.26665,-0.53333 11.99997,-1.46666 l 7.46665,10.9333 z m -15.06662,-55.06653 c 0,7.86665 -3.46666,14.79996 -8.93331,19.59995 l -5.86666,-8.53331 -21.59994,3.46666 7.73331,11.3333 c -13.19996,-1.33333 -23.33327,-12.39997 -23.33327,-25.8666 0,-14.39996 11.59997,-25.99993 25.99993,-25.99993 14.39997,0 25.99994,11.59997 25.99994,25.99993 z"
         id="path4070" />
    </g>
  </g>
</svg>
